<svg width="44" height="43" viewBox="0 0 44 43" fill="none" xmlns="http://www.w3.org/2000/svg">
<rect x="2.85376" width="37.3607" height="2.81967" fill="#58595B"/>
<rect x="2.85376" y="40.1802" width="37.3607" height="2.81967" fill="#58595B"/>
<rect x="2.85376" y="2.81982" width="37.3607" height="2.81967" transform="rotate(90 2.85376 2.81982)" fill="#58595B"/>
<rect x="43.0341" y="2.81982" width="37.3607" height="2.81967" transform="rotate(90 43.0341 2.81982)" fill="#58595B"/>
<rect x="3.25912" y="3.2251" width="36.55" height="36.55" fill="#8DD5F2"/>
<path d="M11.1466 31.2998V27.2998H15.1466V31.2998H11.1466ZM27.1466 31.2998V27.2998H31.1466V31.2998H27.1466ZM15.1466 27.2998V23.2998H19.1466V27.2998H15.1466ZM23.1466 27.2998V23.2998H27.1466V27.2998H23.1466ZM19.1466 23.2998V19.2998H23.1466V23.2998H19.1466ZM15.1466 19.2998V15.2998H19.1466V19.2998H15.1466ZM23.1466 19.2998V15.2998H27.1466V19.2998H23.1466ZM11.1466 15.2998V11.2998H15.1466V15.2998H11.1466ZM27.1466 15.2998V11.2998H31.1466V15.2998H27.1466Z" fill="#58595B"/>
</svg>
