<svg width="200" height="200" viewBox="0 0 200 200" fill="none" xmlns="http://www.w3.org/2000/svg">
<g clip-path="url(#clip0_220_6)">
<path d="M54.8266 99.2785C54.4 107.302 60.1066 114.17 67.52 114.632C67.7866 114.632 68.0533 114.632 68.32 114.632C75.7867 114.632 81.8133 108.11 81.76 100.029C81.76 91.9481 75.7333 85.4257 68.2666 85.4834C61.12 85.4834 55.2 91.544 54.8266 99.2785Z" fill="#0033AD"/>
<path d="M4.58665 95.5267C2.18665 95.3536 0.106654 97.3738 -1.26399e-05 99.9712C-0.106679 102.569 1.70665 104.82 4.10665 104.935C6.50665 105.108 8.53332 103.088 8.69332 100.491C8.85332 97.8932 6.98665 95.6999 4.58665 95.5267Z" fill="#0033AD"/>
<path d="M53.9733 14.6609C56.1067 13.5065 56.96 10.6205 55.8933 8.31169C54.8267 6.00289 52.16 5.07937 50.0267 6.23377C47.8933 7.38817 47.04 10.2165 48.1067 12.5253C49.1733 14.8918 51.7867 15.873 53.9733 14.6609C53.9733 14.6609 53.92 14.6609 53.9733 14.6609Z" fill="#0033AD"/>
<path d="M67.6267 40.4618C70.9333 38.6724 72.2667 34.2857 70.6133 30.7071C68.96 27.1284 64.9067 25.6854 61.6 27.4747C58.2933 29.2641 56.96 33.6508 58.6133 37.2294C60.2667 40.8081 64.32 42.2511 67.6267 40.4618Z" fill="#0033AD"/>
<path d="M21.6533 58.1818C24.2133 59.9711 27.6267 59.2208 29.3333 56.4502C30.9867 53.6797 30.2933 49.9856 27.7333 48.1385C25.1733 46.3492 21.76 47.0996 20.0533 49.8701C18.3467 52.6407 19.0933 56.3925 21.6533 58.1818Z" fill="#0033AD"/>
<path d="M29.8133 92.9293C26.08 92.6984 22.9333 95.7576 22.72 99.798C22.5067 103.838 25.3333 107.244 29.0667 107.475C32.8 107.706 35.9467 104.646 36.16 100.606C36.3733 96.6234 33.5467 93.1602 29.8133 92.9293Z" fill="#0033AD"/>
<path d="M22.4 141.818C19.68 143.319 18.56 146.898 19.9467 149.899C21.3333 152.843 24.64 154.055 27.4133 152.554C30.1333 151.053 31.2533 147.475 29.8667 144.473C28.48 141.53 25.12 140.317 22.4 141.818Z" fill="#0033AD"/>
<path d="M48.5333 77.8643C52.2133 80.4617 57.12 79.3651 59.4666 75.3824C61.8666 71.3997 60.8533 66.0894 57.1733 63.5498C53.4933 60.9524 48.5866 62.049 46.24 66.0317C43.84 69.9567 44.8533 75.2669 48.5333 77.8643Z" fill="#0033AD"/>
<path d="M131.467 39.8846C134.56 42.0779 138.773 41.1544 140.8 37.8066C142.827 34.4589 141.973 29.899 138.88 27.7056C135.787 25.5123 131.573 26.4358 129.547 29.7836C127.467 33.189 128.32 37.6912 131.467 39.8846Z" fill="#0033AD"/>
<path d="M145.227 14.1991C147.253 15.6421 149.92 15.0072 151.253 12.8139C152.587 10.6205 152 7.73449 149.973 6.29149C147.947 4.84849 145.28 5.48341 143.947 7.61905C142.667 9.81241 143.253 12.7561 145.227 14.1991Z" fill="#0033AD"/>
<path d="M132.48 85.368C125.067 84.9062 118.667 91.0822 118.293 99.1053C117.867 107.128 123.573 114.055 130.987 114.459C131.253 114.459 131.52 114.459 131.733 114.459C139.147 114.459 145.173 107.937 145.173 99.8557C145.227 92.1789 139.627 85.772 132.48 85.368Z" fill="#0033AD"/>
<path d="M72.0533 76.8254C74.3467 81.7316 78.9867 84.8485 84.1067 84.8485C91.52 84.8485 97.5467 78.3261 97.5467 70.2453C97.5467 67.9942 97.0667 65.7431 96.1067 63.6652C92.7467 56.4502 84.64 53.5642 78.0267 57.2006C71.36 60.8946 68.6933 69.6681 72.0533 76.8254Z" fill="#0033AD"/>
<path d="M177.6 58.1818C180.32 56.6811 181.387 53.0447 180 50.101C178.613 47.1573 175.253 46.0029 172.533 47.5036C169.813 49.0043 168.747 52.583 170.08 55.5267C171.52 58.4704 174.827 59.6825 177.6 58.1818Z" fill="#0033AD"/>
<path d="M143.467 62.7994C139.573 64.9351 137.973 70.0721 139.947 74.2857C141.92 78.4993 146.667 80.2309 150.56 78.0952C154.453 75.9596 156.053 70.8225 154.08 66.6089C152.107 62.3954 147.36 60.7215 143.467 62.7994Z" fill="#0033AD"/>
<path d="M99.4666 12.0058C102.507 12.1789 105.12 9.63924 105.333 6.3492C105.547 3.05915 103.147 0.23087 100.107 -9.97142e-06C97.0666 -0.17317 94.4533 2.30879 94.24 5.59884C94.08 8.9466 96.4266 11.7749 99.4666 12.0058Z" fill="#0033AD"/>
<path d="M99.4133 49.697C103.787 49.9856 107.52 46.3492 107.733 41.6162C108 36.8831 104.64 32.8427 100.267 32.6118C95.8933 32.3232 92.16 35.9596 91.9467 40.6926C91.7333 45.4257 95.04 49.4661 99.4133 49.697Z" fill="#0033AD"/>
<path d="M56.5333 137.201C60.4266 135.065 62.0266 129.928 60.0533 125.714C58.08 121.501 53.3333 119.769 49.44 121.905C45.5466 124.04 43.9466 129.177 45.92 133.391C47.8933 137.605 52.64 139.336 56.5333 137.201Z" fill="#0033AD"/>
<path d="M104.533 62.2222C100.48 68.9755 102.187 77.9798 108.427 82.3665C114.667 86.7532 122.987 84.9062 127.04 78.1529C131.093 71.3997 129.387 62.3954 123.147 58.0086C120.96 56.4502 118.4 55.6421 115.787 55.6421C111.253 55.6421 107.04 58.1241 104.533 62.2222Z" fill="#0033AD"/>
<path d="M127.947 123.175C124.587 115.96 116.48 113.074 109.867 116.71C103.2 120.346 100.533 129.12 103.893 136.277C107.253 143.492 115.36 146.378 121.973 142.742C128.587 139.163 131.307 130.505 128 123.29C128 123.232 128 123.232 127.947 123.175Z" fill="#0033AD"/>
<path d="M151.467 122.136C147.787 119.538 142.88 120.635 140.533 124.618C138.133 128.6 139.147 133.91 142.827 136.45C146.507 139.048 151.413 137.951 153.76 133.968C156.16 130.043 155.147 124.733 151.467 122.136Z" fill="#0033AD"/>
<path d="M177.28 100.26C177.493 96.2193 174.667 92.8138 170.933 92.5829C167.2 92.3521 164.053 95.4112 163.84 99.4516C163.627 103.492 166.453 106.898 170.187 107.128C173.867 107.359 177.067 104.242 177.28 100.26Z" fill="#0033AD"/>
<path d="M195.893 95.0649C193.493 94.8918 191.413 96.912 191.307 99.5094C191.2 102.107 193.013 104.358 195.413 104.473C197.813 104.646 199.84 102.626 200 100.029C200.107 97.4314 198.293 95.2381 195.893 95.0649Z" fill="#0033AD"/>
<path d="M178.347 141.818C175.787 140.029 172.373 140.779 170.667 143.55C169.013 146.32 169.707 150.014 172.267 151.861C174.827 153.651 178.24 152.9 179.947 150.13C181.653 147.359 180.907 143.607 178.347 141.818Z" fill="#0033AD"/>
<path d="M54.72 185.801C52.6933 184.358 50.0266 184.993 48.6933 187.128C47.36 189.322 47.9466 192.208 49.92 193.651C51.9466 195.094 54.6133 194.459 55.9466 192.323C57.3333 190.188 56.7466 187.244 54.72 185.801Z" fill="#0033AD"/>
<path d="M146.027 185.339C143.893 186.494 143.04 189.38 144.107 191.688C145.173 193.997 147.84 194.921 149.973 193.766C152.107 192.612 152.96 189.784 151.893 187.475C150.827 185.108 148.213 184.127 146.027 185.339C146.027 185.339 146.08 185.339 146.027 185.339Z" fill="#0033AD"/>
<path d="M95.4667 137.778C99.52 131.025 97.8133 122.02 91.5733 117.576C85.3333 113.189 77.0133 115.036 72.9067 121.789C68.8 128.543 70.56 137.547 76.8 141.991C78.9867 143.55 81.5467 144.358 84.16 144.358C88.7467 144.416 92.96 141.934 95.4667 137.778Z" fill="#0033AD"/>
<path d="M68.5333 160.115C65.44 157.922 61.2267 158.846 59.2 162.193C57.1733 165.541 58.0267 170.101 61.12 172.294C64.2133 174.488 68.4267 173.564 70.4533 170.216C72.5333 166.869 71.68 162.309 68.5333 160.115Z" fill="#0033AD"/>
<path d="M99.9466 187.994C96.9066 187.821 94.2933 190.361 94.08 193.651C93.8666 196.941 96.2666 199.769 99.3066 200C102.347 200.173 104.96 197.691 105.173 194.401C105.333 191.053 102.987 188.225 99.9466 187.994Z" fill="#0033AD"/>
<path d="M100 150.303C95.6267 150.014 91.8933 153.651 91.68 158.384C91.4133 163.117 94.7733 167.157 99.1467 167.388C103.52 167.619 107.253 164.04 107.467 159.307C107.733 154.632 104.373 150.534 100 150.303Z" fill="#0033AD"/>
<path d="M132.373 159.538C129.067 161.385 127.733 165.772 129.44 169.351C131.147 172.929 135.2 174.372 138.507 172.525C141.813 170.736 143.147 166.349 141.493 162.771C139.787 159.192 135.733 157.691 132.373 159.538Z" fill="#0033AD"/>
</g>
<defs>
<clipPath id="clip0_220_6">
<rect width="200" height="200" fill="white"/>
</clipPath>
</defs>
</svg>
