<svg width="22" height="22" viewBox="0 0 22 22" fill="none" xmlns="http://www.w3.org/2000/svg">
<rect x="1.44214" width="19.1151" height="1.44265" fill="#58595B"/>
<rect x="1.44214" y="20.5576" width="19.1151" height="1.44265" fill="#58595B"/>
<rect x="1.44214" y="1.44287" width="19.1151" height="1.44265" transform="rotate(90 1.44214 1.44287)" fill="#58595B"/>
<rect x="22" y="1.44287" width="19.1151" height="1.44265" transform="rotate(90 22 1.44287)" fill="#58595B"/>
<rect x="1.64966" y="1.65039" width="18.7003" height="18.7003" fill="#D9D9D9"/>
<path fill-rule="evenodd" clip-rule="evenodd" d="M17 12.9602L14.2921 11.4536L14.6026 10.2602L15.7589 10.8932V8.714L12.0448 6.6608V11.4008L11.1616 11.8538L16.0391 14.5358L11.5 17L6 14.0132V8.0402L11.5 5L17 8.0402V12.9602ZM7.24106 8.714V12.6008L10.8115 10.6808V6.74L7.24106 8.714ZM9.89206 12.5204L7.86159 13.6718L11.5 15.647L13.5544 14.531L9.89206 12.5204Z" fill="#58595B"/>
</svg>
