<svg width="22" height="22" viewBox="0 0 22 22" fill="none" xmlns="http://www.w3.org/2000/svg">
<rect x="1.44263" width="19.1151" height="1.44265" fill="#58595B"/>
<rect x="1.44263" y="20.5576" width="19.1151" height="1.44265" fill="#58595B"/>
<rect x="1.44263" y="1.44287" width="19.1151" height="1.44265" transform="rotate(90 1.44263 1.44287)" fill="#58595B"/>
<rect x="22.0005" y="1.44287" width="19.1151" height="1.44265" transform="rotate(90 22.0005 1.44287)" fill="#58595B"/>
<rect x="1.65015" y="1.65039" width="18.7003" height="18.7003" fill="#D9D9D9"/>
<path d="M10.9034 7.30127L7.85637 14.1874H12.9149C13.0614 14.1874 13.1939 14.2826 13.2514 14.4282L13.2569 14.4415C13.2757 14.4889 13.2841 14.5402 13.2814 14.5916C13.2787 14.643 13.265 14.693 13.2414 14.7379C13.2 14.817 13.1396 14.8829 13.0662 14.929C12.9928 14.975 12.9092 14.9995 12.8239 15H7.44787C7.36468 14.9998 7.28346 14.9731 7.21487 14.9232L7.18687 14.9031C7.10223 14.8406 7.04123 14.7483 7.01469 14.6427C6.98815 14.537 6.99778 14.4249 7.04187 14.3261L10.6369 6.30598C10.6744 6.22233 10.7279 6.14821 10.7934 6.08892C10.8552 6.03248 10.9338 6.00099 11.0155 6.00002C11.0971 5.99905 11.1764 6.02867 11.2394 6.08362C11.268 6.1083 11.291 6.1394 11.3069 6.17468L14.9534 14.2493C15.0034 14.3589 15.0134 14.4844 14.9824 14.6019C14.9662 14.6659 14.9307 14.7225 14.8812 14.7629C14.8316 14.8034 14.7709 14.8255 14.7084 14.8258H14.6664C14.5824 14.8253 14.5004 14.7993 14.4301 14.7508C14.3597 14.7024 14.3039 14.6336 14.2694 14.5526L11.1244 7.30233C11.1149 7.27973 11.0995 7.26048 11.08 7.24688C11.0605 7.23327 11.0377 7.22587 11.0144 7.22557C10.991 7.22558 10.968 7.23272 10.9484 7.24615C10.9287 7.25957 10.9131 7.27871 10.9034 7.30127Z" fill="#58595B"/>
</svg>
