<svg width="22" height="22" viewBox="0 0 22 22" fill="none" xmlns="http://www.w3.org/2000/svg">
<rect x="1.44263" width="19.1151" height="1.44265" fill="#58595B"/>
<rect x="1.44263" y="20.5576" width="19.1151" height="1.44265" fill="#58595B"/>
<rect x="1.44263" y="1.44287" width="19.1151" height="1.44265" transform="rotate(90 1.44263 1.44287)" fill="#58595B"/>
<rect x="22.0005" y="1.44287" width="19.1151" height="1.44265" transform="rotate(90 22.0005 1.44287)" fill="#58595B"/>
<rect x="1.65015" y="1.65039" width="18.7003" height="18.7003" fill="#D9D9D9"/>
<path fill-rule="evenodd" clip-rule="evenodd" d="M9.28 10.6747H11.9763V12.032H9.28V14.8927H10.9806C11.6537 14.8927 12.2044 14.8066 12.6331 14.6332C13.0619 14.4604 13.3981 14.2212 13.6425 13.9148C13.8924 13.5962 14.0626 13.2276 14.14 12.8371C14.2303 12.3967 14.2743 11.9487 14.2712 11.5C14.2743 11.0513 14.2303 10.6033 14.14 10.1629C14.0627 9.77236 13.8925 9.40378 13.6425 9.08522C13.3981 8.77884 13.0613 8.53956 12.6331 8.36678C12.2044 8.19341 11.6537 8.10731 10.9806 8.10731H9.28V10.6753V10.6747ZM7.55125 12.032H6.625V10.6753H7.55125V6.75H11.6444C12.4006 6.75 13.055 6.87469 13.6081 7.12228C14.1613 7.37106 14.6125 7.71009 14.9631 8.14056C15.3131 8.57044 15.5737 9.07394 15.7444 9.65047C15.915 10.227 16 10.8439 16 11.5C16.0043 12.1248 15.9181 12.7471 15.7438 13.3495C15.5738 13.9255 15.3131 14.4296 14.9625 14.8594C14.6125 15.2899 14.1613 15.6289 13.6081 15.8777C13.055 16.1259 12.4 16.25 11.6444 16.25H7.55125V12.032V12.032Z" fill="#58595B"/>
</svg>
