<svg width="22" height="22" viewBox="0 0 22 22" fill="none" xmlns="http://www.w3.org/2000/svg">
<rect x="1.44263" width="19.1151" height="1.44265" fill="#58595B"/>
<rect x="1.44263" y="20.5576" width="19.1151" height="1.44265" fill="#58595B"/>
<rect x="1.44263" y="1.44287" width="19.1151" height="1.44265" transform="rotate(90 1.44263 1.44287)" fill="#58595B"/>
<rect x="22.0005" y="1.44287" width="19.1151" height="1.44265" transform="rotate(90 22.0005 1.44287)" fill="#58595B"/>
<rect x="1.65015" y="1.65039" width="18.7003" height="18.7003" fill="#D9D9D9"/>
<path d="M8.90986 9H10.5278C11.309 9 12.7041 9.50188 12.7041 11.5C12.7041 13.4981 11.3095 14 10.5278 14H8.91045L8.90986 9ZM9.80214 12.9875H10.4722C11.03 12.9875 11.6995 12.6262 11.6995 11.5C11.6995 10.3738 11.03 10.0125 10.4722 10.0125H9.80273L9.80214 12.9875ZM13.3186 9H13.6531L16.6655 13.3912V9H17V14H16.665L13.6525 9.705V14H13.3175L13.3186 9ZM4 9H5.11564V10.25H4V9ZM5.67405 9H6.78909V10.25H5.67405V9ZM7.3475 9H8.46373V10.25H7.3475V9ZM7.3475 10.875H8.46373V12.125H7.3475V10.875ZM7.3475 12.75H8.46373V14H7.3475V12.75ZM5.67405 10.875H6.78909V12.125H5.67405V10.875Z" fill="#58595B"/>
</svg>
